<svg id="Layer_1" data-name="Layer 1" xmlns="http://www.w3.org/2000/svg" viewBox="0 0 1366 768"><defs><style>.cls-1,.cls-26,.cls-8{fill:#fff;}.cls-2{fill:#b3b3b3;}.cls-3{fill:#fcee21;}.cls-4{fill:red;}.cls-5{fill:#39b54a;}.cls-6{opacity:0.08;}.cls-25,.cls-7{fill:#f10c45;}.cls-7{opacity:0.8;}.cls-8{stroke:#000;stroke-miterlimit:10;}.cls-9{fill:#fed841;}.cls-10{fill:#fdb118;}.cls-11{fill:#ff1f2e;}.cls-12{fill:#bf5c15;}.cls-13{fill:#994910;}.cls-14{fill:#ff4d55;}.cls-15{fill:#7ad425;}.cls-16{fill:#6ebd21;}.cls-17{fill:#8ac8ff;opacity:0.5;}.cls-18{font-size:21px;fill:#999;}.cls-18,.cls-26,.cls-28{font-family:MyriadPro-Regular, Myriad Pro;}.cls-19{letter-spacing:-0.01em;}.cls-20{letter-spacing:0em;}.cls-21{letter-spacing:-0.01em;}.cls-22{letter-spacing:0.02em;}.cls-23{letter-spacing:-0.02em;}.cls-24{letter-spacing:0em;}.cls-26{font-size:31.46px;}.cls-27{fill:gray;}.cls-28{font-size:30px;}.cls-29{letter-spacing:0em;}.cls-30{letter-spacing:-0.01em;}.cls-31{letter-spacing:-0.02em;}.cls-32{letter-spacing:-0.06em;}.cls-33{letter-spacing:0.01em;}.cls-34{letter-spacing:0em;}</style></defs><rect class="cls-1" x="0.5" y="0.5" width="1365" height="767"/><path d="M1365,1V767H1V1H1365m1-1H0V768H1366V0Z"/><rect class="cls-1" width="1366" height="768"/><rect class="cls-2" width="1366" height="42"/><rect class="cls-3" x="66" y="11" width="20" height="20" rx="10"/><rect class="cls-4" x="25" y="11" width="20" height="20" rx="10"/><rect class="cls-5" x="106" y="11" width="20" height="20" rx="10"/><rect class="cls-6" y="42" width="1366" height="726"/><rect class="cls-1" x="435" y="66" width="495" height="677" rx="34.92"/><path class="cls-7" d="M469.33,66H895.67A34.33,34.33,0,0,1,930,100.33V323a0,0,0,0,1,0,0H435a0,0,0,0,1,0,0V100.33A34.33,34.33,0,0,1,469.33,66Z"/><rect class="cls-8" x="570.5" y="82.5" width="225" height="225" rx="112.5"/><rect class="cls-8" x="604.5" y="116.5" width="157" height="157" rx="78.5"/><path class="cls-9" d="M766.18,246,593,288l43.46-167.44S677.07,73,746.15,139.75s20,106.24,20,106.24Z"/><path class="cls-10" d="M593,288l173.22-42s49-39.43-19.94-106.15Z"/><path class="cls-11" d="M673.06,241.25c-14.64,3.64-23.49,18-19.91,32.15l53.49-13c-3.79-14.25-18.83-22.84-33.58-19.17Z"/><path class="cls-12" d="M759.4,127.12a175.32,175.32,0,0,0-112-48.91l-11,42.35c12.1,0,25.27-8.94,36.44-6,11.55,3,18.29,17.2,28.41,22.87s26.34,4.36,34.67,12.42,6.9,23.59,12.84,33.5,20.56,16.3,23.66,27.47c3,10.79-6.26,23.52-6.26,35.22L810,235.36C807.38,194.46,789.64,156.35,759.4,127.12Z"/><path class="cls-13" d="M759.4,127.12l-23.46,22.67c8.33,8.06,6.9,23.6,12.84,33.51s20.56,16.3,23.66,27.46c3,10.8-6.26,23.53-6.26,35.23L810,235.36c-2.62-40.9-20.36-79-50.6-108.24Z"/><ellipse class="cls-14" cx="692.97" cy="191.42" rx="26.7" ry="25.8"/><path class="cls-11" d="M674.06,209.6a27.09,27.09,0,0,0,18.88,7.56c14.75,0,26.7-11.55,26.7-25.8a25.31,25.31,0,0,0-7.82-18.25Z"/><path class="cls-14" d="M620.82,180.65l-11.42,44c12.6,2.94,25.29-4.55,28.33-16.73s-4.54-24.18-16.91-27.29Z"/><path class="cls-15" d="M628.16,242.43h12.29v11.89H628.16Z"/><path class="cls-16" d="M628.16,254.31h12.29V242.44Z"/><path class="cls-16" d="M724.39,219.08h12.29V231H724.39Z"/><path class="cls-15" d="M654.44,146.55h12.3v11.88h-12.3Z"/><rect class="cls-17" x="467" y="373" width="432" height="40" rx="15.93"/><text class="cls-18" transform="translate(469.51 357.73)"><tspan class="cls-19">C</tspan><tspan class="cls-20" x="12.03" y="0">a</tspan><tspan class="cls-21" x="22.07" y="0">t</tspan><tspan x="28.9" y="0">ego</tspan><tspan class="cls-22" x="62.68" y="0">r</tspan><tspan x="70.08" y="0">y</tspan></text><rect class="cls-17" x="463" y="453" width="432" height="40" rx="15.93"/><text class="cls-18" transform="translate(469.68 438.46)">Name</text><rect class="cls-17" x="467" y="533" width="432" height="40" rx="15.93"/><text class="cls-18" transform="translate(469.68 518.47)"><tspan class="cls-23">P</tspan><tspan class="cls-24" x="10.84" y="0">r</tspan><tspan x="17.79" y="0">i</tspan><tspan class="cls-21" x="22.7" y="0">c</tspan><tspan x="31.98" y="0">e</tspan></text><rect class="cls-17" x="467" y="613" width="432" height="40" rx="15.93"/><rect class="cls-25" x="754" y="670" width="128" height="53" rx="10"/><text class="cls-26" transform="translate(774.16 706.13) scale(0.98 1)">Submit</text><path class="cls-27" d="M771.46,727l0,0a4.31,4.31,0,0,1-4.06-5.7,4.32,4.32,0,0,0-3-1,4.26,4.26,0,0,0-1.44-4.19l-.06,0a4,4,0,0,0-2.36-1l6.23-7.43a4.29,4.29,0,0,0-6.58-5.52l-12.38,14.72,0-1.76a6,6,0,0,0-6.06-5.87l-1.28,0a.79.79,0,0,0-.83.65l-3.9,19.84a10.16,10.16,0,0,0,3.43,9.74l8.44,7.08h0a10.16,10.16,0,0,0,14.3-1.29l3.78-4.52c2.61-3.1,3.57-4.25,6.44-7.68A4.26,4.26,0,0,0,771.46,727Zm-7.25,12.49-3.8,4.52a8.44,8.44,0,0,1-11.86,1.14l-8.39-7a8.34,8.34,0,0,1-2.78-8L741.12,711l.6,0h0a4.11,4.11,0,0,1,4.2,4.07l.08,4.16a.93.93,0,0,0,.6.83.84.84,0,0,0,1-.22l13.87-16.51a2.5,2.5,0,1,1,3.83,3.22L757,716.48l-.09.1,0,0-3.55,4.24a.87.87,0,0,0,0,1.14.88.88,0,0,0,1.32,0l3.68-4.39a2.42,2.42,0,0,1,3.42-.29l.06,0a2.52,2.52,0,0,1,.29,3.55l-3.25,3.88a.89.89,0,0,0,1.35,1.16l2.54-3a2.46,2.46,0,1,1,3.76,3.15L764.11,729a.89.89,0,0,0,1.35,1.17l1.31-1.56a2.5,2.5,0,0,1,3.54-.32l.06,0a2.5,2.5,0,0,1,.27,3.53C767.78,735.27,766.82,736.41,764.21,739.51Z"/><path class="cls-27" d="M757.72,700.67a.88.88,0,0,0,1.23-.08,6.19,6.19,0,0,1,9.46,7.95.89.89,0,0,0,1.37,1.14,8,8,0,0,0-12.2-10.23A.88.88,0,0,0,757.72,700.67Z"/><text class="cls-18" transform="translate(469.68 598.47)"><tspan class="cls-24">D</tspan><tspan x="14.07" y="0">esciption</tspan></text><text class="cls-28" transform="translate(484.86 404.45)">E<tspan class="cls-29" x="14.76" y="0">n</tspan><tspan x="31.29" y="0">t</tspan><tspan class="cls-30" x="41.22" y="0">r</tspan><tspan x="50.73" y="0">ee</tspan></text><text class="cls-28" transform="translate(484.68 482.11)"><tspan class="cls-31">P</tspan><tspan x="15.48" y="0">izza</tspan></text><text class="cls-28" transform="translate(484.68 564.11)">$10.99</text><text/><text class="cls-28" transform="translate(484.68 643.11)"><tspan class="cls-32">T</tspan><tspan x="12.99" y="0">as</tspan><tspan class="cls-33" x="39.33" y="0">t</tspan><tspan class="cls-34" x="49.53" y="0">y peppe</tspan><tspan class="cls-30" x="151.29" y="0">r</tspan><tspan x="160.8" y="0">oni pizza</tspan></text></svg>