<svg id="Capa_1" enable-background="new 0 0 512.079 512.079" height="512" viewBox="0 0 512.079 512.079" width="512" xmlns="http://www.w3.org/2000/svg"><g><path d="m487.002 356.064c-3.423-2.337-8.089-1.454-10.423 1.968l-17.231 25.253c-5.568 8.161-8.707 17.693-9.076 27.567l-1.768 47.398c-.158 4.229 3.222 7.779 7.5 7.779 4.013 0 7.339-3.177 7.49-7.221l1.768-47.397c.263-7.046 2.502-13.849 6.477-19.672l17.231-25.253c2.335-3.421 1.453-8.087-1.968-10.422z"/><path d="m501.572 276.956-45.237-70.183v-130.383c0-16.729-13.61-30.341-30.34-30.341h-339.939c-16.729 0-30.34 13.611-30.34 30.341v57.622c0 4.143 3.358 7.5 7.5 7.5s7.5-3.357 7.5-7.5v-57.622c0-8.459 6.882-15.341 15.34-15.341h339.938c8.458 0 15.34 6.882 15.34 15.341v226.621c0 2.119-.449 4.185-1.273 6.087l-15.254-16.542v-206.166c0-4.859-3.922-8.813-8.742-8.813h-50.955c-4.143 0-7.5 3.357-7.5 7.5s3.357 7.5 7.5 7.5h44.698v183.713l-25.033-27.146c-8.63-9.359-22.802-9.798-32.027-1.92h-119.966c-4.142 0-7.5 3.357-7.5 7.5s3.358 7.5 7.5 7.5h112.011c-.532 4.669.327 9.506 2.714 13.819l5.967 10.781h-194.898l5.967-10.78c.71-1.283 1.272-2.615 1.718-3.973l2.529 1.874c1.338.991 2.905 1.474 4.46 1.474 2.116 0 4.212-.892 5.689-2.608l22.707-26.389c2.702-3.14 2.347-7.875-.793-10.577s-7.875-2.346-10.577.794l-18.159 21.104-9.534-7.062c-.647-.837-1.341-1.646-2.114-2.4-9.31-9.099-24.323-8.756-33.193.864l-16.47 17.86v-174.429h224.317c4.143 0 7.5-3.357 7.5-7.5s-3.357-7.5-7.5-7.5h-230.575c-4.82 0-8.742 3.954-8.742 8.813v196.881l-23.817 25.828c-.824-1.902-1.273-3.968-1.273-6.087v-139.012c0-4.143-3.358-7.5-7.5-7.5s-7.5 3.357-7.5 7.5v42.774l-45.238 70.183c-14.309 22.2-13.935 50.642.952 72.458l28.882 42.326c3.974 5.823 6.213 12.626 6.477 19.671l1.768 47.398c.151 4.05 3.515 7.347 7.774 7.216 4.139-.154 7.37-3.636 7.215-7.774l-1.768-47.399c-.369-9.873-3.507-19.405-9.075-27.566l-28.883-42.327c-11.48-16.823-11.768-38.757-.734-55.876l32.63-50.623v68.551c0 6.371 2.013 12.513 5.647 17.611l-4.054 4.396c-2.808 3.045-2.616 7.79.429 10.598 3.046 2.807 7.79 2.615 10.598-.43l69.966-75.874c3.085-3.344 8.356-3.554 11.683-.304 2.615 2.555 3.205 6.573 1.434 9.771l-42.062 75.994c-3.099 5.599-2.473 12.407 1.593 17.345 8.178 9.936 10.623 23.654 6.381 35.803-2.089 5.982-3.223 12.228-3.371 18.562l-.808 34.757c-.097 4.19 3.267 7.675 7.501 7.675 4.061 0 7.4-3.244 7.495-7.325l.808-34.757c.111-4.767.964-9.466 2.536-13.967 5.958-17.061 2.524-36.327-8.961-50.282-.126-.153-.146-.373-.049-.547l10.343-18.687h246.401l10.343 18.688c.097.174.076.394-.051.547-11.484 13.953-14.918 33.22-8.96 50.282 1.571 4.499 2.425 9.197 2.535 13.966l.809 34.757c.094 4.044 3.404 7.393 7.673 7.323 4.141-.097 7.42-3.531 7.323-7.673l-.809-34.757c-.147-6.337-1.281-12.582-3.37-18.562-4.242-12.148-1.798-25.867 6.38-35.803 4.066-4.939 4.691-11.748 1.593-17.345l-42.062-75.995c-1.77-3.197-1.18-7.215 1.435-9.771 3.339-3.261 8.614-3.024 11.683.304l69.967 75.874c2.809 3.045 7.554 3.237 10.598.43 3.045-2.808 3.237-7.553.43-10.598l-4.054-4.396c3.634-5.097 5.646-11.24 5.646-17.611v-68.551l32.63 50.624c9.49 14.724 10.72 32.978 3.289 48.828-1.758 3.751-.143 8.217 3.607 9.975 3.735 1.75 8.209.16 9.975-3.607 9.636-20.558 8.042-44.23-4.264-63.323zm-360.445 41.394 9.147-16.526h211.503l9.147 16.526z"/><path d="m90.957 195.116v-10.832c0-4.143-3.358-7.5-7.5-7.5s-7.5 3.357-7.5 7.5v10.832c0 4.143 3.358 7.5 7.5 7.5s7.5-3.357 7.5-7.5z"/><path d="m200.852 116.628c-3.14-2.702-7.875-2.346-10.577.794l-18.16 21.104-10.968-8.123c-3.327-2.466-8.026-1.767-10.491 1.562-2.465 3.328-1.766 8.025 1.563 10.49l16.57 12.273c1.338.991 2.904 1.474 4.46 1.474 2.116 0 4.212-.892 5.689-2.608l22.707-26.389c2.702-3.14 2.347-7.875-.793-10.577z"/><path d="m373.93 128.008h-141.148c-4.142 0-7.5 3.357-7.5 7.5s3.358 7.5 7.5 7.5h141.148c4.143 0 7.5-3.357 7.5-7.5s-3.357-7.5-7.5-7.5z"/><path d="m373.93 187.616h-141.148c-4.142 0-7.5 3.357-7.5 7.5s3.358 7.5 7.5 7.5h141.148c4.143 0 7.5-3.357 7.5-7.5s-3.357-7.5-7.5-7.5z"/><path d="m193.139 176.543c-2.929-2.928-7.678-2.929-10.606.001l-7.966 7.966-7.966-7.966c-2.929-2.929-7.678-2.93-10.606-.001-2.929 2.929-2.929 7.678 0 10.606l7.966 7.967-7.966 7.967c-2.929 2.929-2.929 7.678 0 10.606 1.464 1.464 3.384 2.196 5.303 2.196s3.839-.732 5.303-2.197l7.966-7.966 7.966 7.966c1.464 1.465 3.384 2.197 5.303 2.197s3.839-.732 5.303-2.196c2.929-2.929 2.929-7.678 0-10.606l-7.966-7.967 7.966-7.967c2.929-2.928 2.929-7.677 0-10.606z"/></g></svg>