<svg height="512" viewBox="0 0 128 128" width="512" xmlns="http://www.w3.org/2000/svg"><path d="m122.922 23.474-18.4-18.4a1.75 1.75 0 0 0 -2.474 0l-85 85a1.649 1.649 0 0 0 -.119.146c-.026.032-.054.061-.078.095a1.746 1.746 0 0 0 -.191.349l-6.919 17.563v.006l-5.054 12.809a1.751 1.751 0 0 0 2.271 2.271l12.809-5.052 17.559-6.925a1.773 1.773 0 0 0 .349-.191c.034-.024.063-.052.1-.078a1.794 1.794 0 0 0 .145-.119l61.73-61.728 23.267-23.268a1.75 1.75 0 0 0 .005-2.478zm-24.507 22.032-15.921-15.921 4.982-4.985 15.92 15.92zm-61.726 61.726-3.5-3.5 59.248-59.254 3.5 3.5zm-9.944-9.944 59.255-59.251 3.963 3.963-59.251 59.255zm-5.977-5.977 59.251-59.251 3.5 3.5-59.248 59.254zm-8.757 20.7 3.977 3.977-6.567 2.59zm7.526 2.577-6.126-6.126 5.532-14.028 4.088 4.088 6.436 6.436 4.088 4.088zm86.334-76.538-15.921-15.921 13.339-13.338 15.921 15.92z"/></svg>