<svg id="Layer_1" data-name="Layer 1" xmlns="http://www.w3.org/2000/svg" viewBox="0 0 1366 768"><defs><style>.cls-1,.cls-17,.cls-6{fill:#fff;}.cls-2{fill:#b3b3b3;}.cls-3{fill:#fcee21;}.cls-4{fill:red;}.cls-5{fill:#39b54a;}.cls-6{stroke:#666;stroke-miterlimit:10;}.cls-7{font-size:45.15px;}.cls-17,.cls-7{font-family:MyriadPro-Regular, Myriad Pro;}.cls-8{letter-spacing:-0.08em;}.cls-9{letter-spacing:0em;}.cls-10{letter-spacing:0em;}.cls-11{letter-spacing:0em;}.cls-12{letter-spacing:0em;}.cls-13{letter-spacing:0em;}.cls-14{fill:#f10c45;}.cls-15{fill:#333;}.cls-16{fill:gray;}.cls-17{font-size:36px;}.cls-18{letter-spacing:-0.02em;}.cls-19{letter-spacing:0em;}.cls-20{letter-spacing:0em;}.cls-21{letter-spacing:0em;}</style></defs><rect class="cls-1" x="0.5" y="0.5" width="1365" height="767"/><path d="M1365,1V767H1V1H1365m1-1H0V768H1366V0Z"/><rect class="cls-2" width="1366" height="42"/><rect class="cls-3" x="66" y="11" width="20" height="20" rx="10"/><rect class="cls-4" x="25" y="11" width="20" height="20" rx="10"/><rect class="cls-5" x="106" y="11" width="20" height="20" rx="10"/><text/><rect class="cls-1" x="1" y="42" width="1365" height="726"/><rect class="cls-6" x="252.5" y="171.5" width="467" height="467"/><path d="M404.67,341.4v24.53A3.2,3.2,0,0,0,408,369h26.67a3.2,3.2,0,0,0,3.33-3.07V341.4a3.21,3.21,0,0,0-3.33-3.07H408A3.21,3.21,0,0,0,404.67,341.4Zm6.66,3.07h20v18.4h-20Z"/><path d="M541.33,369H568a3.2,3.2,0,0,0,3.33-3.07V341.4a3.21,3.21,0,0,0-3.33-3.07H541.33A3.21,3.21,0,0,0,538,341.4v24.53A3.2,3.2,0,0,0,541.33,369Zm3.34-24.53h20v18.4h-20Z"/><path d="M434.67,461H408a3.2,3.2,0,0,0-3.33,3.07V488.6a3.21,3.21,0,0,0,3.33,3.07h26.67A3.21,3.21,0,0,0,438,488.6V464.07A3.2,3.2,0,0,0,434.67,461Zm-3.34,24.53h-20v-18.4h20Z"/><rect x="418" y="350.6" width="6.67" height="6.13"/><path d="M394.67,329.13h26.66V323h-30a3.2,3.2,0,0,0-3.33,3.07v27.6h6.67Z"/><path d="M394.67,476.33H388v27.6a3.2,3.2,0,0,0,3.33,3.07h30v-6.13H394.67Z"/><path d="M584.67,323h-30v6.13h26.66v24.54H588v-27.6A3.2,3.2,0,0,0,584.67,323Z"/><path d="M581.33,500.87h-20V507h23.34a3.2,3.2,0,0,0,3.33-3.07v-27.6h-6.67Z"/><rect x="551.33" y="350.6" width="6.67" height="6.13"/><rect x="418" y="473.27" width="6.67" height="6.13"/><rect x="444.67" y="350.6" width="6.67" height="6.13"/><rect x="491.33" y="350.6" width="6.67" height="6.13"/><polygon points="504.67 350.6 504.67 362.87 518 362.87 518 356.73 511.33 356.73 511.33 350.6 504.67 350.6"/><polygon points="458 350.6 458 356.73 464.67 356.73 464.67 350.6 464.67 344.47 518 344.47 518 350.6 524.67 350.6 524.67 344.47 524.67 338.33 451.33 338.33 451.33 344.47 458 344.47 458 350.6"/><rect x="444.67" y="362.87" width="6.67" height="12.27"/><rect x="451.33" y="375.13" width="6.67" height="6.13"/><polygon points="458 362.87 458 369 464.67 369 464.67 375.13 478 375.13 478 362.87 481.33 362.87 481.33 356.73 484.67 356.73 484.67 350.6 471.33 350.6 471.33 356.73 474.67 356.73 474.67 362.87 458 362.87"/><rect x="484.67" y="369" width="6.67" height="6.13"/><polygon points="521.33 399.67 528 399.67 528 393.53 534.67 393.53 534.67 387.4 521.33 387.4 521.33 399.67"/><rect x="491.33" y="362.87" width="6.67" height="6.13"/><polygon points="471.33 467.13 471.33 461 464.67 461 464.67 454.87 458 454.87 458 467.13 471.33 467.13"/><rect x="524.67" y="356.73" width="6.67" height="6.13"/><rect x="521.33" y="369" width="13.33" height="12.27"/><polygon points="404.67 448.73 411.33 448.73 411.33 424.2 418 424.2 418 418.07 404.67 418.07 404.67 448.73"/><rect x="404.67" y="375.13" width="33.33" height="6.13"/><polygon points="418 387.4 404.67 387.4 404.67 405.8 411.33 405.8 411.33 399.67 418 399.67 418 387.4"/><polygon points="471.33 418.07 471.33 411.93 478 411.93 478 399.67 484.67 399.67 484.67 393.53 491.33 393.53 491.33 387.4 484.67 387.4 484.67 381.27 478 381.27 478 387.4 478 393.53 471.33 393.53 471.33 387.4 458 387.4 458 399.67 464.67 399.67 464.67 418.07 471.33 418.07"/><polygon points="444.67 491.67 451.33 491.67 451.33 485.53 461.33 485.53 461.33 491.67 468 491.67 468 485.53 471.33 485.53 471.33 479.4 451.33 479.4 451.33 473.27 444.67 473.27 444.67 491.67"/><polygon points="514.67 427.27 514.67 421.13 521.33 421.13 521.33 415 528 415 528 402.73 508 402.73 508 415 501.33 415 501.33 421.13 508 421.13 508 427.27 514.67 427.27"/><polygon points="504.67 390.47 511.33 390.47 511.33 384.33 504.67 384.33 504.67 378.2 498 378.2 498 396.6 504.67 396.6 504.67 390.47"/><rect x="424.67" y="387.4" width="13.33" height="6.13"/><rect x="444.67" y="387.4" width="6.67" height="6.13"/><rect x="424.67" y="418.07" width="6.67" height="6.13"/><rect x="444.67" y="424.2" width="6.67" height="6.13"/><rect x="451.33" y="418.07" width="6.67" height="6.13"/><rect x="451.33" y="467.13" width="6.67" height="6.13"/><rect x="418" y="405.8" width="6.67" height="6.13"/><rect x="424.67" y="399.67" width="13.33" height="6.13"/><rect x="438" y="405.8" width="6.67" height="6.13"/><rect x="491.33" y="402.73" width="6.67" height="6.13"/><rect x="484.67" y="408.87" width="6.67" height="6.13"/><rect x="494.67" y="424.2" width="6.67" height="6.13"/><rect x="538" y="418.07" width="13.33" height="6.13"/><rect x="551.33" y="424.2" width="6.67" height="6.13"/><rect x="481.33" y="424.2" width="6.67" height="6.13"/><polygon points="478 424.2 464.67 424.2 464.67 430.33 458 430.33 458 436.47 471.33 436.47 471.33 430.33 478 430.33 478 424.2"/><polygon points="484.67 485.53 478 485.53 478 491.67 491.33 491.67 491.33 485.53 498 485.53 498 479.4 484.67 479.4 484.67 485.53"/><polygon points="518 479.4 518 485.53 511.33 485.53 511.33 491.67 524.67 491.67 524.67 485.53 531.33 485.53 531.33 479.4 518 479.4"/><polygon points="548 387.4 548 381.27 554.67 381.27 554.67 375.13 541.33 375.13 541.33 381.27 534.67 381.27 534.67 387.4 548 387.4"/><rect x="488" y="445.67" width="6.67" height="6.13"/><rect x="488" y="457.93" width="6.67" height="6.13"/><rect x="478" y="473.27" width="6.67" height="6.13"/><polygon points="481.33 445.67 481.33 439.53 474.67 439.53 474.67 445.67 474.67 451.8 481.33 451.8 481.33 445.67"/><rect x="494.67" y="464.07" width="6.67" height="6.13"/><polygon points="544.67 485.53 531.33 485.53 531.33 491.67 551.33 491.67 551.33 479.4 544.67 479.4 544.67 485.53"/><rect x="544.67" y="467.13" width="6.67" height="6.13"/><rect x="531.33" y="467.13" width="6.67" height="6.13"/><rect x="518" y="467.13" width="6.67" height="6.13"/><rect x="524.67" y="461" width="6.67" height="6.13"/><rect x="504.67" y="479.4" width="6.67" height="6.13"/><rect x="444.67" y="411.93" width="6.67" height="6.13"/><polygon points="564.67 491.67 571.33 491.67 571.33 473.27 558 473.27 558 479.4 564.67 479.4 564.67 491.67"/><rect x="558" y="461" width="6.67" height="6.13"/><polygon points="571.33 436.47 564.67 436.47 564.67 448.73 558 448.73 558 454.87 571.33 454.87 571.33 436.47"/><rect x="564.67" y="424.2" width="6.67" height="6.13"/><polygon points="571.33 375.13 564.67 375.13 564.67 402.73 551.33 402.73 551.33 396.6 538 396.6 538 408.87 564.67 408.87 564.67 418.07 571.33 418.07 571.33 375.13"/><polygon points="521.33 457.93 521.33 445.67 514.67 445.67 514.67 433.4 494.67 433.4 494.67 445.67 501.33 445.67 501.33 457.93 521.33 457.93"/><polygon points="444.67 430.33 418 430.33 418 454.87 431.33 454.87 431.33 448.73 424.67 448.73 424.67 442.6 438 442.6 438 461 444.67 461 444.67 454.87 458 454.87 458 448.73 451.33 448.73 451.33 442.6 458 442.6 458 436.47 444.67 436.47 444.67 430.33"/><polygon points="558 436.47 544.67 436.47 544.67 430.33 531.33 430.33 531.33 442.6 538 442.6 538 461 544.67 461 544.67 454.87 551.33 454.87 551.33 442.6 558 442.6 558 436.47"/><text class="cls-7" transform="translate(275.48 254.71)"><tspan class="cls-8">Y</tspan><tspan x="20.99" y="0">our </tspan><tspan class="cls-9" x="94.99" y="0">R</tspan><tspan class="cls-10" x="119.46" y="0">estau</tspan><tspan class="cls-11" x="221.54" y="0">r</tspan><tspan class="cls-12" x="236.08" y="0">a</tspan><tspan class="cls-13" x="257.84" y="0">n</tspan><tspan x="282.71" y="0">t Name</tspan></text><rect class="cls-14" x="252" y="587" width="467" height="52"/><rect class="cls-15" x="809" y="132" width="528" height="332" rx="28.88"/><rect class="cls-1" x="840" y="228" width="178" height="13"/><rect class="cls-1" x="840" y="267" width="245" height="13"/><rect class="cls-1" x="840" y="307.02" width="150" height="10.96"/><rect class="cls-1" x="1179" y="215" width="124" height="116"/><rect class="cls-3" x="855" y="147" width="20" height="20" rx="10"/><rect class="cls-4" x="830" y="142" width="20" height="20" rx="10"/><path class="cls-16" d="M826.69,132h492.63A17.69,17.69,0,0,1,1337,149.69V177a0,0,0,0,1,0,0H809a0,0,0,0,1,0,0V149.69A17.69,17.69,0,0,1,826.69,132Z"/><rect class="cls-4" x="820" y="147" width="20" height="20" rx="10"/><rect class="cls-3" x="852" y="147" width="20" height="20" rx="10"/><rect class="cls-5" x="885" y="147" width="20" height="20" rx="10"/><path class="cls-2" d="M1273.26,239a2.24,2.24,0,0,0-1.78-.95h-63a2.37,2.37,0,0,0-1.78.95,3.63,3.63,0,0,0-.74,2.27v59.56a3.61,3.61,0,0,0,.82,2.27,2.33,2.33,0,0,0,1.78.95h62.88a2.37,2.37,0,0,0,1.78-.95,3.63,3.63,0,0,0,.74-2.27V241.22A3.85,3.85,0,0,0,1273.26,239Zm-1.49,61.69c0,.1,0,.1-.07.19s-.08.09-.15.09h-63.1c-.07,0-.07,0-.15-.09a.36.36,0,0,1-.07-.19V241.08h.15s0,0,.07-.05l.15-.19h63c.07,0,.07,0,.15.09a.4.4,0,0,1,.07.19v59.52Z"/><path class="cls-2" d="M1266.72,248a1.9,1.9,0,0,0-1.49-.75H1215a1.87,1.87,0,0,0-1.49.75,3.07,3.07,0,0,0-.6,1.89v42.26a2.6,2.6,0,0,0,.6,1.89,1.87,1.87,0,0,0,1.49.75h50.27a1.9,1.9,0,0,0,1.49-.75,3.06,3.06,0,0,0,.59-1.89V249.87A3.06,3.06,0,0,0,1266.72,248Zm-18.73,44v.23H1217.2l5.18-11.45,5.19-11.45,5.18,11.45v.1l1.78,4a1.5,1.5,0,0,0,.45.57,1,1,0,0,0,1.55-.57l4.08-9,7.4-16.46,7.41,16.37v-.14l7.51,16.37Zm16.91-1.47L1257.46,274v-.06L1249,255.45a1.07,1.07,0,0,0-1.56-.57,1.67,1.67,0,0,0-.44.57L1238.65,274l-3,6.7-.81-1.8v-.1l-6.16-13.63a1.06,1.06,0,0,0-1.56-.56,1.52,1.52,0,0,0-.44.56l-6.16,13.72-5.19,11.55V250.06h49.61v40.41Z"/><path class="cls-2" d="M1238.4,255.22a3.68,3.68,0,0,0-6-.09l-.07.09a6.48,6.48,0,0,0-1.27,3.88,6.69,6.69,0,0,0,1.27,3.88,4,4,0,0,0,3,1.61,3.83,3.83,0,0,0,3-1.61,6.41,6.41,0,0,0,1.27-3.88A6.17,6.17,0,0,0,1238.4,255.22Zm-1.63,5.68a1.7,1.7,0,0,1-2.83,0,3,3,0,0,1-.59-1.8,2.8,2.8,0,0,1,.59-1.8,1.71,1.71,0,0,1,2.83,0,3,3,0,0,1,0,3.6Z"/><rect class="cls-16" x="1129" y="387" width="176" height="49" rx="24.5"/><text class="cls-17" transform="translate(1179.08 424.63)"><tspan class="cls-18">P</tspan><tspan class="cls-19" x="18.58" y="0">r</tspan><tspan x="30.49" y="0">i</tspan><tspan class="cls-20" x="38.92" y="0">n</tspan><tspan class="cls-21" x="58.75" y="0">t</tspan></text><path class="cls-1" d="M1154.87,451.09l0,0a6.27,6.27,0,0,0-4-1.27,5.24,5.24,0,0,0-1.72-6.22,6.42,6.42,0,0,0-4.44-1.21,5.21,5.21,0,0,0-1.94-5.56l-.09-.06a6,6,0,0,0-3.43-1.23l9.47-10.19a5.34,5.34,0,0,0-.57-8.05,6.8,6.8,0,0,0-8.86.9l-18.83,20.2,0-2.35a7.2,7.2,0,0,0-2.53-5.57,8.81,8.81,0,0,0-6.13-2.07h-1.87a1.25,1.25,0,0,0-1.26.9L1102.1,456a12.33,12.33,0,0,0,4.63,12.91l12.11,9.17h0c6.15,4.65,15.59,3.62,21.08-2.27l5.75-6.2c4-4.26,5.43-5.83,9.78-10.54A5.29,5.29,0,0,0,1154.87,451.09Zm-11.19,17-5.78,6.2c-4.58,4.91-12.42,5.81-17.48,2l-12-9.1a10.14,10.14,0,0,1-3.76-10.63l6.32-25.8h.93a6.13,6.13,0,0,1,4.26,1.42,5,5,0,0,1,1.75,3.88l-.06,5.57a1.16,1.16,0,0,0,.84,1.09,1.34,1.34,0,0,0,1.42-.34l21.1-22.64a4,4,0,0,1,5.25-.61,3.17,3.17,0,0,1,.25,4.77L1134,437.52l-.13.14-.06.06-5.41,5.82a1.09,1.09,0,0,0,0,1.53,1.37,1.37,0,0,0,1.94,0l5.6-6a3.86,3.86,0,0,1,5-.52l.08.07a3.14,3.14,0,0,1,.28,4.75l-4.95,5.31a1.1,1.1,0,0,0,0,1.54,1.38,1.38,0,0,0,1.94,0l3.91-4.21a4,4,0,0,1,5.21-.65,3.12,3.12,0,0,1,.18,4.73l-3.67,4a1.11,1.11,0,0,0,0,1.54,1.38,1.38,0,0,0,2,0l2-2.15a4,4,0,0,1,5.23-.56l.08.06a3.12,3.12,0,0,1,.24,4.73C1149.11,462.28,1147.65,463.85,1143.68,468.1Z"/><path class="cls-1" d="M1135.81,416.22a1.37,1.37,0,0,0,1.8-.14,9.54,9.54,0,0,1,12.46-1,7.47,7.47,0,0,1,1.12,11.24,1.07,1.07,0,0,0,.15,1.62,1.38,1.38,0,0,0,1.81-.14,9.62,9.62,0,0,0-1.44-14.48,12.28,12.28,0,0,0-16.06,1.24A1.06,1.06,0,0,0,1135.81,416.22Z"/></svg>